<svg id="Layer_1" data-name="Layer 1" xmlns="http://www.w3.org/2000/svg" viewBox="0 0 7607 1397"><path d="M455.15,976c-21.91-49.88-7.87-89.47,28.93-128.06,54-56.61,50.24-154.47-3.87-212.07-12.55-13.36-26.25-25.64-38.69-39.09-42-45.44-42.58-116.15-1.63-165.6,38-45.89,112.43-58.16,161.59-26.63,53.07,34,73.38,98.68,45.87,155.77-9,18.61-23.76,36-39.73,49.36-87.27,73-94.33,172.79-16.58,255.83,27.48,29.34,31,68.13,9.47,103.92-19.24,32-57.47,47.3-95,37.8-9.22-2.33-18.21-5.62-27.3-8.47Z" fill="#fff"/><path d="M1015.18,553.64c13.13,35.91,2.46,68.88-30.31,93.72-58.81,44.59-67.77,100-25.69,159.14,21.24,29.83,18.53,60.21-7.14,79.78-21.16,16.13-51,12.5-69.94-8.5-20.8-23.08-18.77-53.42,5.2-78,49-50.13,51.4-100.15,9.33-155.25-12.14-15.9-25-33.55-29.7-52.36-9.48-38.13,16.78-78.79,52.55-89C959.94,491.66,1000.3,512.93,1015.18,553.64Z" fill="#fff"/><path d="M787,851.4c-60.95,30.64-131.8,7.53-164-53.47-31-58.84-6.88-135.63,51.69-164.44,59.47-29.25,138.23-4.59,166.35,52.08C870.18,744.13,844.64,822.45,787,851.4Z" fill="#fff"/><path d="M1647.53,674.87a152.69,152.69,0,0,1-152.78,152.78H1479c-84.45,0-153.13-68.33-153.13-152.78,0-83.4,68.68-153.13,153.13-153.13h15.77C1579.2,521.74,1647.53,591.47,1647.53,674.87Zm-41.7,0c0-65.53-53.61-119.14-119.14-119.14s-119.14,53.61-119.14,119.14S1421.16,794,1486.69,794,1605.83,740.4,1605.83,674.87Z" fill="#fff"/><path d="M1693.9,726.35V521.7h178.78C1929.31,521.7,1975,568.41,1975,624a102.17,102.17,0,0,1-102.32,102.33H1738.57v101.3h-44.71V726.35Zm178.75-43.74c31.78,0,58.58-26.8,58.58-58.59s-26.8-57.6-58.58-57.6H1738.54V682.61Z" fill="#fff"/><path d="M2262.55,521.7v41.74H2059.9v90.4h173.84v41.74H2059.9V786h202.65v41.73H2018.16v-306Z" fill="#fff"/><path d="M2362.86,521.7,2537.69,772V521.7h42.71V827.65h-54.63L2351.93,579.31V827.65h-42.68V521.7Z" fill="#fff"/><path d="M2695.47,521.7,2870.29,772V521.7H2913V827.65h-54.63L2684.54,579.31V827.65h-42.69V521.7Z" fill="#fff"/><path d="M3218.84,521.7v41.74H3016.2v90.4H3190v41.74H3016.2V786h202.64v41.73H2974.46v-306Z" fill="#fff"/><path d="M3454.42,726.38l86.2,101.27h-55.36L3398.7,726.38h-88.3V827.65h-44.85V521.74h178.71c56.77,0,103.37,46.6,103.37,102.32C3547.63,677.67,3505.93,721.48,3454.42,726.38Zm-10.16-43.8c31.89,0,58.87-26.63,58.87-58.52s-27-57.47-58.87-57.47H3310.4v116Z" fill="#fff"/><path d="M3578.05,521.7h269.16v57.61L3623.71,786h223.5v41.7H3579l-1,1V771l224.48-207.58H3578.05Z" fill="#fff"/><path d="M4026.48,521.7h282.13v41.74h-120.2V828.63h-41.73V563.44h-120.2Z" fill="#fff"/><path d="M4587.74,521.7v41.74H4385.09v90.4h173.84v41.74H4385.09V786h202.65v41.73H4343.36v-306Z" fill="#fff"/><path d="M4882.8,626c-18.85-40.75-60.59-70.54-109.26-70.54-65.56,0-119.21,53.65-119.21,119.21S4708,793.91,4773.54,793.91a119.68,119.68,0,0,0,109.26-70.54h43.7c-19.87,60.59-77.48,104.28-145,104.28h-15.91a153,153,0,0,1-153-153c0-83.43,68.54-153,153-153h15.91c67.56,0,125.17,43.69,145,104.28Z" fill="#fff"/><path d="M5188.49,521.7h41.74V827.65h-41.74V695.54h-175.8V827.65H4971V521.7h41.7V653.81h175.8Z" fill="#fff"/><path d="M5345.41,521.7,5520.24,772V521.7H5563V827.65h-54.63L5334.48,579.31V827.65H5291.8V521.7Z" fill="#fff"/><path d="M5931.23,674.87a152.69,152.69,0,0,1-152.78,152.78h-15.77c-84.45,0-153.14-68.33-153.14-152.78,0-83.4,68.69-153.13,153.14-153.13h15.77C5862.9,521.74,5931.23,591.47,5931.23,674.87Zm-41.7,0c0-65.53-53.62-119.14-119.14-119.14s-119.15,53.61-119.15,119.14S5704.86,794,5770.39,794,5889.53,740.4,5889.53,674.87Z" fill="#fff"/><path d="M5977.56,521.7h41.73V786h199.64v41.7H5977.56Z" fill="#fff"/><path d="M6543.57,674.87a152.69,152.69,0,0,1-152.78,152.78H6375c-84.45,0-153.14-68.33-153.14-152.78,0-83.4,68.69-153.13,153.14-153.13h15.77C6475.24,521.74,6543.57,591.47,6543.57,674.87Zm-41.7,0c0-65.53-53.62-119.14-119.14-119.14s-119.15,53.61-119.15,119.14S6317.2,794,6382.73,794,6501.87,740.4,6501.87,674.87Z" fill="#fff"/><path d="M6865.3,520.72v42.72h-148c-53.65,0-98.33,43.69-98.33,98.32v25.83c0,54.63,44.71,99.34,98.33,99.34h106.28V695.54h-97.35V653.81H6865.3V828.63h-148c-76.5,0-140.07-63.56-140.07-141V661.76c0-77.47,63.57-141,140.07-141Z" fill="#fff"/><path d="M7196.85,521.7,7070.7,689.59l-4.94,6.94V827.65H7023V696.53l-5-6.94L6891.91,521.7h52.64l100.32,133.13,99.35-133.13Z" fill="#fff"/></svg>