<svg xmlns="http://www.w3.org/2000/svg" version="1.1" xmlns:xlink="http://www.w3.org/1999/xlink" xmlns:svgjs="http://svgjs.dev/svgjs" width="1682" height="1414.2"><svg id="SvgjsSvg1001" data-name="Layer 1" xmlns="http://www.w3.org/2000/svg" viewBox="0 0 1682 1414.2"><path d="M335.1,1247.11C292.46,1150,319.77,1073,391.39,997.89c105.07-110.16,97.78-300.61-7.53-412.72-24.41-26-51.08-49.89-75.3-76.06-81.83-88.43-82.87-226-3.16-322.27,74-89.31,218.8-113.18,314.46-51.83,103.29,66.25,142.81,192,89.26,303.15-17.45,36.2-46.23,70-77.3,96.05C462,676.27,448.23,870.47,599.55,1032.07,653,1089.18,659.9,1164.66,618,1234.32c-37.45,62.2-111.84,92-184.87,73.56-18-4.54-35.43-10.94-53.13-16.49Z" fill="#1f50a0"></path><path d="M1425,425.19c25.54,69.88,4.79,134-59,182.39-114.45,86.77-131.88,194.71-50,309.69,41.34,58.06,36,117.18-13.9,155.26-41.18,31.4-99.26,24.34-136.11-16.54-40.47-44.9-36.53-104,10.13-151.72,95.29-97.55,100-194.9,18.16-302.12-23.64-30.95-48.71-65.3-57.81-101.9-18.45-74.2,32.65-153.32,102.28-173.2C1317.46,304.57,1396,346,1425,425.19Z" fill="#1f50a0"></path><path d="M981,1004.66c-118.61,59.62-256.5,14.65-319.1-104.07-60.37-114.49-13.39-263.94,100.59-320,115.74-56.92,269-8.94,323.74,101.34C1142.77,795.9,1093.08,948.32,981,1004.66Z" fill="#1f50a0"></path></svg><style>@media (prefers-color-scheme: light) { :root { filter: none; } }
@media (prefers-color-scheme: dark) { :root { filter: none; } }
</style></svg>